<?xml version="1.0" standalone="no"?>
<!DOCTYPE svg PUBLIC "-//W3C//DTD SVG 20010904//EN"
 "http://www.w3.org/TR/2001/REC-SVG-20010904/DTD/svg10.dtd">
<svg version="1.0" xmlns="http://www.w3.org/2000/svg"
 width="300.000000pt" height="169.000000pt" viewBox="0 0 300.000000 169.000000"
 preserveAspectRatio="xMidYMid meet">
<metadata>
Created by potrace 1.10, written by Peter Selinger 2001-2011
</metadata>
<g transform="translate(0.000000,169.000000) scale(0.100000,-0.100000)"
fill="#000000" stroke="none">
<path d="M1182 1305 c-11 -14 -25 -48 -32 -75 -14 -60 -51 -86 -105 -76 -38 8
-65 -1 -65 -20 0 -10 15 -14 60 -14 33 0 60 -2 60 -4 0 -3 -11 -35 -24 -73
-32 -89 -57 -188 -55 -216 5 -54 -1 -65 -44 -85 -48 -22 -87 -20 -112 8 -19
21 -22 67 -6 97 11 22 9 98 -3 110 -3 3 -6 14 -6 24 0 10 -7 25 -16 34 -15 14
-18 14 -44 -2 -44 -29 -90 -71 -90 -82 0 -6 -4 -11 -9 -11 -5 0 -17 -17 -27
-39 -11 -25 -29 -44 -51 -55 -47 -23 -50 -21 -58 29 -3 25 -19 70 -35 100
l-29 55 19 46 c41 95 16 202 -50 215 -46 10 -120 -22 -160 -67 -32 -37 -140
-251 -162 -321 -7 -24 -16 -43 -20 -43 -5 0 -8 -8 -8 -18 0 -10 -4 -22 -9 -28
-5 -5 -11 -30 -14 -56 -4 -42 -2 -48 15 -48 12 0 24 12 33 33 20 47 24 49 64
21 43 -29 150 -64 197 -64 43 0 102 24 110 45 3 8 12 15 20 15 8 0 14 4 14 8
0 11 76 53 83 46 3 -3 1 -17 -5 -30 -9 -19 -8 -28 7 -44 40 -44 110 -32 158
27 24 29 33 29 41 -2 4 -15 21 -32 45 -45 47 -23 89 -15 133 27 21 20 28 23
28 11 0 -29 51 -60 85 -54 16 4 37 8 46 9 9 2 36 18 60 35 39 29 44 31 48 15
4 -21 28 -51 51 -63 21 -11 110 6 132 27 17 15 18 15 18 -5 0 -43 20 -30 61
38 23 39 45 73 50 76 7 4 13 -28 11 -56 0 -3 7 -15 16 -27 14 -19 28 -23 84
-24 59 -2 73 2 106 25 21 14 43 26 48 26 6 0 20 14 32 30 29 39 38 38 47 -6 4
-23 21 -51 50 -79 41 -42 45 -43 81 -34 22 4 58 9 82 9 23 0 42 4 42 9 0 5 33
26 73 47 39 20 89 48 110 61 22 14 41 22 44 19 3 -3 7 -20 8 -38 2 -18 3 -36
4 -40 2 -15 45 -48 62 -48 10 0 24 6 31 13 7 7 28 19 46 26 19 8 40 25 49 38
18 27 43 30 43 5 0 -24 38 -59 73 -68 21 -5 36 -1 57 15 16 11 35 21 42 21 18
1 52 31 67 58 11 21 -1 33 -14 13 -7 -13 -64 -41 -82 -41 -7 0 -13 -4 -13 -8
0 -10 -61 -9 -77 1 -7 5 -13 21 -13 37 0 15 -6 31 -12 34 -9 3 -5 12 12 26 27
24 54 90 41 103 -11 11 -45 -26 -70 -75 -10 -21 -38 -52 -62 -70 -24 -17 -51
-39 -59 -49 -9 -11 -32 -22 -53 -26 -36 -5 -37 -5 -36 23 1 16 17 64 36 106
34 75 36 98 9 98 -13 0 -66 -71 -66 -88 0 -5 -22 -21 -50 -36 -27 -15 -52 -31
-55 -36 -4 -6 -16 -10 -28 -10 -13 0 -32 -7 -44 -15 -11 -8 -56 -26 -100 -40
-124 -39 -172 -22 -188 65 -13 70 67 222 159 307 112 101 114 103 156 103 40
0 40 0 40 -38 0 -27 -13 -60 -46 -116 -52 -86 -65 -151 -30 -151 13 0 30 21
55 67 20 36 44 80 53 96 16 28 16 33 0 98 l-17 69 -55 3 c-57 3 -76 -5 -157
-59 -70 -48 -174 -194 -203 -286 -28 -90 -137 -162 -247 -163 -40 0 -60 29
-43 60 8 15 17 19 31 15 26 -9 101 36 134 79 73 95 -33 171 -122 87 -35 -33
-35 -26 -1 42 47 93 50 98 60 131 30 98 14 133 -47 100 -19 -10 -35 -24 -35
-30 0 -6 -9 -19 -20 -29 -11 -10 -17 -21 -15 -26 3 -4 1 -10 -4 -14 -27 -16
-80 -165 -96 -265 -17 -110 -24 -127 -69 -150 -79 -40 -155 -18 -130 38 4 9 6
21 5 25 -1 5 8 20 19 34 24 30 26 49 5 57 -16 6 -27 -4 -65 -58 -14 -19 -49
-47 -79 -63 -29 -15 -59 -36 -66 -46 -8 -12 -15 -15 -20 -8 -3 6 -10 9 -15 6
-15 -9 -22 14 -27 85 -5 63 -2 77 37 177 23 59 45 111 49 115 3 4 47 10 96 14
139 9 170 16 173 40 3 18 -2 20 -70 17 -40 -1 -73 -3 -73 -4 0 0 -20 -2 -44
-3 -47 -2 -63 13 -40 41 8 9 19 38 25 64 9 40 8 49 -3 54 -20 7 -19 8 -41 -20z
m-708 -84 c28 -31 29 -89 4 -151 l-23 -55 -52 -2 c-28 -1 -60 -6 -71 -12 -24
-13 -35 -71 -17 -90 20 -20 89 -5 125 29 36 34 44 27 70 -60 21 -68 19 -82
-13 -103 -31 -20 -142 -39 -180 -32 -41 8 -137 55 -137 67 0 5 7 22 15 38 8
16 30 71 49 122 19 51 45 113 60 138 14 25 26 54 26 65 1 26 56 63 96 64 19 1
38 -7 48 -18z m1162 -195 c-47 -97 -87 -176 -89 -176 -8 0 15 105 29 134 8 16
14 34 14 41 0 12 24 68 40 95 6 8 16 29 24 46 15 35 46 58 60 44 4 -4 -30 -87
-78 -184z m-1216 -50 c0 -16 -57 -42 -68 -31 -9 8 35 45 54 45 8 0 14 -6 14
-14z m1350 -30 c0 -12 -7 -32 -16 -44 -26 -38 -123 -68 -138 -43 -16 25 119
138 141 119 7 -6 13 -20 13 -32z m-959 -17 c-6 -17 -11 -51 -11 -74 0 -37 -5
-48 -35 -74 -20 -17 -44 -31 -55 -31 -10 0 -22 -4 -25 -10 -11 -18 -23 -11
-28 17 -3 18 3 39 22 66 14 22 34 51 43 66 28 43 82 91 92 81 5 -5 4 -22 -3
-41z"/>
<path d="M1885 1242 c-3 -11 3 -46 14 -80 10 -34 17 -63 15 -65 -3 -2 2 -10
11 -17 20 -16 30 8 21 53 -3 17 -9 50 -12 72 -9 53 -37 74 -49 37z"/>
<path d="M1392 1098 c-17 -17 -15 -42 7 -62 17 -16 19 -15 24 20 9 51 -4 69
-31 42z"/>
</g>
</svg>
