<?xml version="1.0" standalone="no"?>
<!DOCTYPE svg PUBLIC "-//W3C//DTD SVG 20010904//EN"
 "http://www.w3.org/TR/2001/REC-SVG-20010904/DTD/svg10.dtd">
<svg version="1.0" xmlns="http://www.w3.org/2000/svg"
 width="1920.000000pt" height="1080.000000pt" viewBox="0 0 1920.000000 1080.000000"
 preserveAspectRatio="xMidYMid meet">
<metadata>
Created by potrace 1.16, written by Peter Selinger 2001-2019
</metadata>
<g transform="translate(0.000000,1080.000000) scale(0.100000,-0.100000)"
fill="#000000" stroke="none">
<path d="M0 5400 l0 -5400 9600 0 9600 0 0 5400 0 5400 -9600 0 -9600 0 0
-5400z m7849 3049 c46 -23 60 -35 57 -47 -3 -10 -21 -82 -41 -162 -19 -80 -48
-171 -64 -202 l-29 -57 24 -16 c17 -11 24 -25 24 -46 0 -36 -69 -166 -91 -172
-29 -8 -119 -138 -119 -172 0 -34 76 -134 113 -148 13 -5 48 1 95 15 69 20 77
21 102 6 23 -13 29 -13 45 -2 24 17 64 17 138 -1 68 -16 80 -13 125 29 42 39
92 40 174 3 l58 -26 167 9 c113 7 206 18 283 35 63 14 127 28 142 32 22 4 34
-1 64 -31 35 -35 36 -38 28 -84 -4 -26 -8 -69 -7 -95 0 -46 -2 -50 -39 -75
-44 -29 -84 -32 -234 -18 -103 10 -129 6 -169 -26 -22 -17 -42 -22 -104 -23
-47 -1 -126 -13 -207 -33 -72 -18 -158 -32 -191 -32 -53 0 -62 3 -88 30 l-28
29 -29 -24 c-32 -27 -84 -33 -119 -15 -14 8 -29 5 -61 -12 -39 -21 -59 -23
-197 -25 -204 -3 -240 -16 -296 -103 -22 -34 -78 -180 -132 -339 -78 -232
-262 -702 -344 -878 l-49 -105 0 -142 c0 -77 7 -211 16 -296 9 -85 17 -212 18
-281 2 -126 3 -127 43 -210 23 -46 50 -94 60 -106 l18 -22 34 29 c18 17 35 30
37 30 1 0 22 -27 45 -60 23 -33 44 -60 47 -60 3 0 39 36 80 80 116 125 245
214 338 234 21 5 46 24 74 58 58 68 93 88 157 88 47 0 58 5 125 55 40 30 132
119 204 198 106 115 132 150 138 182 12 61 41 109 112 184 58 62 70 70 112 76
32 4 62 1 91 -9 31 -10 51 -12 69 -5 33 13 36 8 18 -34 -9 -22 -12 -51 -9 -76
9 -67 -4 -105 -70 -190 -115 -151 -129 -178 -124 -241 2 -30 7 -62 11 -70 4
-11 -2 -19 -23 -26 -23 -9 -31 -21 -42 -63 -7 -29 -23 -63 -35 -77 -18 -19
-21 -29 -14 -51 5 -15 13 -66 19 -113 14 -112 31 -135 97 -135 27 0 59 -6 71
-13 36 -20 193 -16 244 8 53 24 81 25 156 5 83 -22 130 -13 150 30 19 39 43
51 133 65 62 9 90 26 90 56 0 31 42 63 99 75 l58 11 31 86 c18 48 39 116 46
152 8 36 26 110 40 165 14 55 51 251 81 435 59 354 87 480 134 607 16 43 32
98 35 123 10 68 26 140 43 195 20 67 118 259 187 369 42 68 56 99 56 127 0 65
39 132 184 316 15 20 17 29 7 49 -23 51 -15 65 99 174 l110 106 0 50 c0 66 25
89 150 145 129 57 165 82 179 120 l11 32 57 -7 c74 -8 152 -46 196 -95 32 -36
36 -45 42 -125 6 -68 4 -97 -9 -137 -13 -39 -14 -54 -5 -65 15 -18 7 -58 -32
-146 -17 -39 -35 -100 -40 -137 -17 -123 -69 -241 -149 -342 -18 -23 -39 -72
-56 -130 -71 -249 -152 -425 -251 -547 -19 -24 -36 -55 -37 -71 -1 -16 -22
-51 -49 -85 -39 -48 -45 -61 -37 -77 14 -26 24 -24 46 9 31 48 127 143 189
187 66 47 216 117 340 158 l80 27 49 -25 c60 -30 68 -31 91 -5 26 29 56 25
111 -15 27 -19 65 -44 85 -54 83 -46 109 -111 109 -279 0 -54 6 -121 14 -150
l13 -52 -37 -64 c-49 -84 -72 -114 -214 -281 -65 -77 -120 -142 -122 -144 -2
-2 -10 2 -18 8 -12 10 -26 4 -75 -37 -113 -94 -225 -162 -381 -232 l-85 -38
-57 29 c-40 20 -72 29 -107 29 -46 0 -52 -3 -86 -42 -72 -85 -85 -231 -30
-343 33 -68 49 -76 171 -80 50 -2 101 -8 112 -14 16 -9 26 -8 40 0 15 10 24 9
41 -3 21 -15 28 -14 82 5 54 20 60 21 75 5 15 -15 19 -14 49 6 28 20 51 24
159 29 137 6 184 21 206 62 11 20 21 25 51 25 40 0 64 16 149 96 27 26 62 47
87 54 44 11 106 63 285 238 80 79 178 152 202 152 6 0 25 14 43 32 30 29 33
37 33 93 0 91 57 283 155 519 36 87 62 131 227 386 45 69 113 175 151 235 142
223 380 518 577 715 138 138 218 198 276 207 32 5 52 21 113 86 119 126 262
212 449 271 119 37 239 53 453 61 265 9 271 6 347 -180 50 -124 102 -296 136
-446 74 -335 60 -398 -149 -676 -131 -175 -156 -218 -225 -383 -193 -465 -361
-612 -496 -434 -26 34 -29 45 -28 109 3 196 97 428 293 733 184 285 229 365
296 526 46 111 65 208 66 326 0 110 -6 143 -33 183 l-19 27 -162 0 c-312 -1
-345 -14 -516 -204 -114 -128 -116 -129 -228 -184 -138 -68 -192 -114 -331
-286 -122 -150 -197 -227 -260 -267 -37 -23 -71 -69 -219 -301 -245 -383 -328
-530 -407 -720 -107 -260 -135 -445 -101 -673 37 -246 145 -436 271 -479 28
-9 80 -16 124 -16 51 0 82 -5 96 -15 25 -19 249 -20 354 -1 41 8 143 41 225
74 171 69 300 111 430 142 109 26 196 66 339 160 161 105 168 108 301 119
l118 9 81 81 c45 45 88 81 95 81 8 0 49 17 90 39 42 21 94 44 115 51 46 15 82
35 194 107 l82 54 52 106 c63 129 143 240 231 317 59 52 65 62 60 87 -14 74
64 139 146 120 77 -17 111 -54 111 -122 0 -39 -51 -218 -90 -315 -17 -44 -80
-173 -140 -289 -59 -115 -119 -238 -133 -273 -14 -34 -33 -69 -41 -78 -23 -22
-20 -38 20 -110 20 -35 33 -71 30 -79 -3 -9 -21 -25 -41 -36 -48 -28 -46 -60
6 -132 43 -62 62 -68 113 -42 18 10 41 13 62 9 28 -5 46 2 120 47 88 54 115
61 188 47 14 -2 29 15 62 77 53 96 83 125 129 125 24 0 35 5 40 19 12 39 114
130 247 219 218 148 274 202 299 294 5 21 29 71 53 111 24 40 71 122 105 183
66 118 185 270 228 293 31 16 115 10 138 -9 29 -24 19 -97 -31 -205 -64 -139
-78 -197 -66 -260 6 -27 9 -50 9 -50 -1 0 -50 -25 -109 -54 -118 -60 -166
-102 -192 -171 -17 -42 -17 -45 -1 -55 104 -61 114 -80 126 -242 11 -148 29
-189 106 -248 53 -40 82 -43 144 -15 57 25 100 25 132 0 25 -20 28 -20 57 -5
29 15 33 15 58 -1 18 -12 27 -14 30 -5 16 48 93 94 148 89 59 -5 79 3 121 48
34 37 46 44 57 35 11 -9 17 -6 31 15 16 25 19 26 81 19 76 -8 94 2 94 50 0 27
4 34 28 40 15 3 50 22 78 41 49 34 120 59 128 45 2 -3 -17 -57 -43 -120 -52
-127 -37 -111 -275 -289 -102 -77 -112 -82 -159 -82 -71 0 -157 -41 -182 -86
-15 -27 -37 -44 -99 -75 -45 -22 -92 -47 -106 -54 -34 -20 -186 -19 -269 0
-94 23 -205 85 -303 171 -94 82 -99 92 -118 209 -19 118 -63 175 -137 175 -23
0 -33 -5 -38 -20 -12 -38 -124 -177 -182 -228 -122 -105 -278 -187 -379 -200
-55 -7 -59 -9 -84 -52 -31 -54 -93 -98 -190 -135 -130 -50 -161 -46 -250 32
-65 57 -91 73 -118 73 -25 0 -38 24 -113 212 -49 122 -57 168 -35 199 27 39
21 81 -14 101 -37 21 -39 49 -9 118 13 31 18 56 14 67 -5 10 -7 27 -6 37 3 18
1 19 -21 4 -288 -189 -588 -358 -931 -524 -77 -37 -160 -83 -185 -104 -70 -54
-131 -86 -192 -100 -71 -16 -126 -44 -145 -74 -9 -14 -19 -50 -22 -80 l-6 -56
-46 0 c-26 0 -101 7 -166 16 -169 22 -233 16 -405 -41 -130 -42 -157 -48 -262
-53 l-118 -5 -49 47 c-28 25 -80 60 -116 77 -45 22 -84 51 -127 98 -89 93
-212 260 -253 340 -44 89 -98 245 -120 352 l-18 87 -96 -80 c-212 -176 -211
-175 -211 -217 0 -22 -6 -44 -15 -51 -8 -6 -56 -18 -106 -26 -97 -14 -112 -21
-135 -66 -10 -19 -22 -28 -40 -28 -17 0 -44 -19 -87 -61 -85 -85 -128 -111
-180 -113 -31 -1 -52 -9 -74 -27 -21 -18 -53 -30 -94 -38 -34 -6 -72 -17 -85
-26 -31 -20 -30 -21 -59 24 l-26 39 -72 -26 c-55 -19 -98 -26 -182 -30 -135
-5 -386 22 -397 43 -5 7 -42 55 -84 107 -42 51 -85 110 -96 132 l-20 38 27 28
c28 30 26 50 -10 80 -14 12 -16 25 -10 75 8 74 -6 139 -36 171 l-23 24 -38
-37 c-54 -52 -118 -149 -233 -348 -123 -213 -165 -275 -233 -347 -30 -32 -51
-62 -47 -68 15 -24 -6 -60 -46 -81 l-41 -20 -25 23 c-39 37 -63 93 -71 168
l-7 70 -52 -35 c-29 -19 -57 -35 -63 -35 -5 0 -10 -7 -10 -15 0 -32 -36 -53
-108 -60 -70 -7 -86 -15 -117 -60 -12 -19 -25 -20 -182 -21 l-168 -1 -47 -33
c-45 -32 -48 -32 -72 -17 -14 10 -40 17 -59 17 -58 0 -133 46 -192 119 -30 36
-78 88 -106 116 -64 60 -87 111 -102 219 l-11 83 -116 -75 c-151 -98 -276
-193 -378 -287 -78 -73 -84 -76 -101 -61 -12 11 -36 16 -75 16 -46 0 -73 -8
-139 -39 -95 -46 -228 -76 -295 -67 -73 10 -181 68 -259 140 -83 77 -125 138
-169 249 l-32 79 -17 -33 c-33 -65 -89 -129 -150 -171 -33 -23 -80 -58 -105
-79 -93 -76 -139 -99 -200 -99 -31 0 -62 6 -69 12 -10 10 -15 10 -18 1 -2 -7
-13 -23 -24 -37 -22 -28 -48 -33 -67 -14 -9 9 -17 6 -37 -12 l-24 -23 -148 63
c-188 79 -246 112 -309 175 -60 59 -96 124 -119 216 -26 102 -77 141 -118 91
-12 -15 -65 -71 -117 -124 -52 -54 -113 -117 -135 -142 -33 -36 -54 -48 -111
-65 -93 -29 -129 -52 -154 -100 -19 -38 -22 -40 -47 -30 -19 7 -45 6 -94 -6
-104 -23 -169 -20 -214 11 -27 18 -45 24 -62 19 -41 -10 -108 31 -176 108 -34
38 -79 88 -99 110 -52 55 -52 101 -2 177 70 106 77 135 49 191 -9 16 -13 34
-10 39 11 17 -281 -123 -390 -188 -113 -67 -118 -72 -100 -91 14 -16 14 -19
-2 -33 -10 -9 -54 -31 -98 -49 -102 -42 -148 -84 -143 -134 2 -35 0 -38 -66
-80 -85 -55 -202 -101 -326 -128 -129 -28 -457 -30 -600 -4 -249 47 -515 128
-721 221 -142 64 -134 59 -313 188 -75 54 -142 98 -149 98 -24 0 -91 -60 -121
-108 -16 -26 -50 -98 -76 -160 -49 -121 -83 -172 -134 -203 -34 -21 -108 -25
-150 -9 -24 9 -26 14 -26 76 0 36 12 154 26 262 16 128 23 217 19 254 -6 56
-5 57 24 73 40 20 59 59 66 132 10 96 25 141 57 168 16 14 36 25 43 25 19 0
35 32 35 69 0 32 32 122 100 285 29 68 44 121 49 170 7 65 13 79 75 176 75
117 229 420 355 700 239 528 372 744 596 966 200 198 429 322 700 379 64 13
77 12 214 -11 267 -46 319 -86 390 -297 76 -226 96 -326 96 -487 0 -161 -18
-279 -67 -445 -32 -107 -112 -313 -160 -408 l-29 -59 67 -106 c37 -59 100
-170 139 -247 154 -304 221 -532 241 -816 l7 -101 36 7 c60 11 158 53 337 147
148 76 175 94 199 130 15 23 41 54 57 69 19 17 26 29 19 33 -20 13 -11 76 18
134 25 49 37 61 81 82 50 23 51 25 45 58 -3 18 -9 40 -12 48 -4 10 4 14 30 14
45 0 61 22 81 112 4 18 31 47 79 85 39 32 123 102 185 155 164 141 286 231
381 281 83 45 84 45 129 32 52 -16 104 -62 128 -114 10 -20 28 -77 40 -128 28
-113 63 -184 106 -214 18 -12 34 -23 36 -25 2 -1 -7 -30 -19 -65 -21 -64 -21
-64 -4 -211 29 -240 12 -337 -69 -405 -33 -27 -34 -30 -37 -115 -3 -74 -7 -91
-26 -109 -19 -20 -20 -24 -7 -44 8 -12 18 -61 23 -110 8 -78 12 -92 36 -112
14 -13 34 -23 44 -23 12 0 22 -13 30 -42 18 -60 33 -82 86 -117 37 -25 56 -31
99 -31 28 0 57 -5 63 -11 8 -8 17 -8 31 0 32 17 80 14 86 -6 4 -10 14 -28 24
-41 l17 -22 70 35 c39 19 108 44 155 56 65 17 118 42 223 103 l138 81 -5 49
c-3 27 -12 56 -21 66 -14 16 -14 18 0 30 53 44 68 140 39 260 -26 110 -21 156
50 443 113 459 208 761 387 1224 33 84 59 154 59 156 0 14 -116 30 -255 37
-113 6 -178 14 -221 27 -49 16 -73 18 -125 12 -129 -16 -177 10 -163 88 4 21
11 46 16 55 12 25 61 48 101 48 19 0 55 6 81 14 41 13 58 13 120 1 127 -24
262 -29 346 -11 92 20 187 64 257 117 65 51 94 116 153 349 90 350 161 497
292 595 76 57 116 59 207 14z m4332 -413 c13 -29 35 -39 114 -56 99 -22 109
-43 58 -124 l-34 -55 24 -88 c13 -48 45 -158 70 -243 58 -199 75 -324 59 -449
-8 -71 -18 -103 -39 -136 -23 -38 -31 -43 -53 -39 -47 11 -75 40 -112 114
l-36 75 24 24 23 25 -39 43 c-22 23 -40 52 -40 63 0 11 -16 76 -35 145 -20 69
-43 173 -52 232 -12 76 -21 112 -33 120 -58 41 -67 199 -14 237 14 10 14 16 5
35 -10 18 -9 28 6 54 17 28 35 38 86 46 4 0 12 -10 18 -23z m-3078 -988 c14
-18 39 -59 57 -92 30 -52 32 -59 16 -68 -52 -29 -66 -77 -66 -226 0 -64 -3
-76 -25 -97 -24 -25 -65 -34 -65 -15 0 6 -35 47 -78 93 -111 115 -132 150
-132 212 1 49 3 53 96 157 l95 108 39 -20 c21 -11 50 -34 63 -52z"/>
<path d="M2572 7915 c-73 -20 -91 -31 -139 -85 -26 -29 -77 -66 -140 -100 -99
-55 -164 -106 -186 -144 -6 -12 -14 -70 -17 -131 l-6 -110 -96 -195 c-53 -107
-123 -235 -156 -285 -65 -97 -118 -226 -252 -620 -82 -240 -188 -536 -225
-625 -42 -101 -129 -270 -184 -359 l-50 -80 62 -40 c34 -22 103 -67 152 -101
121 -83 223 -133 367 -181 66 -22 130 -46 142 -53 11 -8 47 -16 78 -20 31 -3
94 -15 140 -26 128 -31 238 -37 293 -16 24 10 49 15 54 12 5 -3 30 3 56 14 57
24 73 25 96 4 17 -15 20 -15 45 0 36 24 97 41 275 77 136 27 157 34 191 64 21
18 60 40 86 50 69 25 149 75 160 100 7 14 6 32 -3 57 -12 37 -7 46 41 60 15 4
-54 342 -102 503 -57 193 -133 343 -226 449 l-35 40 -30 -45 c-56 -81 -173
-175 -338 -270 -59 -33 -97 -49 -121 -49 -20 0 -70 -9 -112 -19 -116 -29 -226
-43 -278 -35 -37 5 -56 16 -94 53 -26 25 -62 54 -80 64 -28 15 -32 21 -27 50
2 17 21 69 42 115 30 69 36 91 31 125 -10 69 -7 87 20 136 47 87 144 128 362
156 68 9 141 23 162 31 35 14 46 14 116 -1 85 -19 167 -16 225 7 33 14 41 28
127 215 109 238 147 348 167 480 24 158 15 346 -18 365 -27 15 -47 63 -47 115
0 54 -24 97 -94 172 -65 68 -109 83 -256 87 -89 3 -140 0 -178 -11z"/>
<path d="M10800 7707 l-115 -53 -43 -69 c-52 -85 -82 -163 -82 -214 0 -29 -7
-44 -31 -67 -69 -65 -159 -222 -159 -278 0 -21 -10 -38 -36 -60 -33 -29 -36
-36 -44 -116 -4 -47 -14 -97 -21 -112 -11 -25 -62 -58 -88 -58 -7 0 0 -17 14
-37 33 -49 32 -70 -7 -110 -29 -30 -31 -34 -18 -58 13 -24 11 -28 -28 -68 -54
-56 -75 -105 -61 -146 9 -27 7 -34 -19 -68 -56 -70 -88 -200 -122 -493 -11
-102 -25 -200 -30 -219 -5 -19 -8 -36 -7 -37 1 -2 20 32 41 74 22 42 118 223
214 402 245 456 313 600 317 672 3 61 12 79 98 183 57 68 70 96 61 131 -5 19
0 32 22 55 15 16 36 29 45 29 11 0 16 7 15 18 -9 60 66 242 123 297 22 22 31
39 31 64 0 20 20 78 47 135 58 124 68 194 33 231 -13 14 -26 25 -29 25 -3 0
-58 -24 -121 -53z"/>
<path d="M11123 6240 c-58 -62 -83 -71 -124 -49 -18 9 -40 -5 -167 -108 -261
-209 -404 -370 -465 -521 l-26 -63 30 -33 c40 -47 100 -60 226 -51 79 6 105
12 133 31 19 13 91 46 159 73 189 76 284 149 360 276 45 74 81 200 81 282 0
61 -2 67 -46 124 -49 64 -83 99 -96 99 -4 0 -33 -27 -65 -60z"/>
<path d="M2432 6269 c-23 -12 -58 -40 -76 -63 -49 -59 -119 -193 -106 -201 18
-11 126 30 283 105 l147 71 0 39 c0 60 -17 70 -118 70 -68 0 -96 -5 -130 -21z"/>
<path d="M5045 6150 c-112 -76 -183 -146 -191 -190 -5 -22 -13 -30 -35 -35
-67 -15 -116 -85 -174 -250 -44 -122 -76 -163 -162 -200 -20 -8 -40 -29 -53
-55 -11 -22 -37 -59 -57 -81 -27 -29 -46 -70 -74 -152 -39 -112 -39 -112 -76
-120 -83 -17 -91 -62 -30 -165 45 -75 61 -125 52 -169 -8 -42 3 -53 52 -53 21
0 56 16 108 51 72 49 79 51 148 53 113 3 168 36 347 210 92 89 109 110 99 122
-6 8 -10 15 -8 17 2 1 22 11 44 22 22 11 50 35 62 54 22 32 22 39 18 205 -3
94 -8 194 -11 223 -8 64 18 154 87 300 52 112 79 191 79 233 0 25 -5 28 -57
39 -31 6 -59 11 -62 10 -3 0 -51 -31 -106 -69z"/>
</g>
</svg>
